# xmcd
#
# Track frame offsets:
#	150
#	13498
#	29532
#	49383
#	68396
#	80701
#	94567
#	108808
#	125521
#	140335
#
# Disc length: 2263 seconds
#
# Revision: 1
# Processed by: cddbd v1.5.2PL0 Copyright (c) Steve Scherf et al.
# Submitted via: audiograbber 1.83.01
#
DISCID=8308d50a
DTITLE=The Duke and The King - Long Live The Duke and The King
DYEAR=2010
DGENRE=Americana
TTITLE0=O' Gloria
TTITLE1=Shine On You
TTITLE2=Shaky
TTITLE3=Right Now
TTITLE4=Hudson River
TTITLE5=No Easy Way Out
TTITLE6=You And I
TTITLE7=Children Of The Sun
TTITLE8=Have You Seen It?
TTITLE9=Don't Take That Plane Tonight
EXTD=
EXTT0=
EXTT1=
EXTT2=
EXTT3=
EXTT4=
EXTT5=
EXTT6=
EXTT7=
EXTT8=
EXTT9=
PLAYORDER=
